<svg width="101" height="101" viewBox="0 0 101 101" fill="none" xmlns="http://www.w3.org/2000/svg">
<mask id="mask0_39_86" style="mask-type:alpha" maskUnits="userSpaceOnUse" x="0" y="0" width="101" height="101">
<rect y="39.3286" width="73" height="73" transform="rotate(-32.5984 0 39.3286)" fill="#002DF8"/>
</mask>
<g mask="url(#mask0_39_86)">
<path d="M56.969 60.6642L60.6643 43.8594L43.8595 40.1642L42.5662 46.0458L49.2881 47.5239L38.5256 54.4064L41.803 59.5315L52.5655 52.649L51.0874 59.3709L56.969 60.6642ZM66.8012 76.0392C63.2564 78.3061 59.495 79.7637 55.5169 80.4122C51.5389 81.0606 47.6594 80.9691 43.8783 80.1376C40.0972 79.3062 36.5372 77.7618 33.1981 75.5044C29.859 73.247 27.0561 70.3459 24.7892 66.8011C22.5224 63.2563 21.0647 59.4949 20.4163 55.5169C19.7679 51.5388 19.8594 47.6593 20.6908 43.8782C21.5223 40.0971 23.0667 36.5371 25.3241 33.198C27.5815 29.8589 30.4826 27.056 34.0274 24.7891C37.5722 22.5223 41.3336 21.0646 45.3116 20.4162C49.2897 19.7678 53.1692 19.8593 56.9503 20.6907C60.7314 21.5222 64.2914 23.0666 67.6305 25.324C70.9695 27.5814 73.7725 30.4825 76.0393 34.0273C78.3062 37.5721 79.7638 41.3335 80.4123 45.3115C81.0607 49.2896 80.9692 53.1691 80.1377 56.9502C79.3063 60.7313 77.7619 64.2913 75.5045 67.6304C73.2471 70.9694 70.346 73.7724 66.8012 76.0392ZM63.5238 70.9142C69.2467 67.2545 72.8242 62.1687 74.2561 55.6568C75.688 49.145 74.5741 43.0276 70.9143 37.3047C67.2546 31.5817 62.1688 28.0043 55.6569 26.5724C49.1451 25.1405 43.0277 26.2544 37.3048 29.9142C31.5818 33.5739 28.0044 38.6597 26.5725 45.1715C25.1406 51.6834 26.2545 57.8008 29.9143 63.5237C33.574 69.2466 38.6598 72.8241 45.1716 74.256C51.6835 75.6879 57.8009 74.574 63.5238 70.9142Z" fill="#002DF8"/>
</g>
</svg>
