<?xml version="1.0" encoding="utf-8"?><svg xmlns="http://www.w3.org/2000/svg" xmlns:xlink="http://www.w3.org/1999/xlink" width="2245" height="998" preserveAspectRatio="xMidYMid" viewBox="0 0 2245 998" style="z-index:1;margin-right:-2px;display:block;background-color:rgb(241, 242, 243);animation-play-state:paused" ><g transform="translate(1122.5,499) scale(1,1) translate(-1122.5,-499)" style="transform:matrix(1, 0, 0, 1, 0, 0);animation-play-state:paused" ><linearGradient id="lg-0.7165120870168555" x1="0" x2="1" y1="0" y2="0" style="animation-play-state:paused" ><stop stop-color="#0055a5" offset="0" style="animation-play-state:paused" ></stop>

  
<stop stop-color="#45aee7" offset="1" style="animation-play-state:paused" ></stop></linearGradient>
<path d="M 0 0 L 0 882.715 Q 280.625 731.796 561.25 715.637 T 1122.5 669.163 T 1683.75 498.243 T 2245 420.834 L 2245 0 Z" fill="url(#lg-0.7165120870168555)" opacity="0.4" style="opacity:0.4;animation-play-state:paused" ></path>
<path d="M 0 0 L 0 835.059 Q 280.625 823.807 561.25 791.533 T 1122.5 577.532 T 1683.75 534.372 T 2245 388.394 L 2245 0 Z" fill="url(#lg-0.7165120870168555)" opacity="0.4" style="opacity:0.4;animation-play-state:paused" ></path>
<path d="M 0 0 L 0 855.196 Q 280.625 825.016 561.25 807.893 T 1122.5 584.74 T 1683.75 513.731 T 2245 380.029 L 2245 0 Z" fill="url(#lg-0.7165120870168555)" opacity="0.4" style="opacity:0.4;animation-play-state:paused" ></path>
<path d="M 0 0 L 0 784.853 Q 280.625 739.689 561.25 710.43 T 1122.5 604.876 T 1683.75 524.025 T 2245 292.637 L 2245 0 Z" fill="url(#lg-0.7165120870168555)" opacity="0.4" style="opacity:0.4;animation-play-state:paused" ></path>
<path d="M 0 0 L 0 862.239 Q 280.625 853.219 561.25 811.823 T 1122.5 621.359 T 1683.75 562.334 T 2245 404.93 L 2245 0 Z" fill="url(#lg-0.7165120870168555)" opacity="0.4" style="opacity:0.4;animation-play-state:paused" ></path></g></svg>