<svg width="48" height="48" viewBox="0 0 48 48" fill="none" xmlns="http://www.w3.org/2000/svg">
<path d="M0 11C0 4.92487 4.92487 0 11 0C17.0751 0 22 4.92487 22 11V22H11C4.92487 22 0 17.0751 0 11Z" fill="#797979"/>
<path d="M48 37C48 43.0751 43.0751 48 37 48C30.9249 48 26 43.0751 26 37L26 26L37 26C43.0751 26 48 30.9249 48 37Z" fill="#797979"/>
<path d="M37 -4.80825e-07C43.0751 -2.15273e-07 48 4.92487 48 11C48 17.0751 43.0751 22 37 22L26 22L26 11C26 4.92487 30.9249 -7.46378e-07 37 -4.80825e-07Z" fill="#797979"/>
<path d="M11 48C4.92487 48 6.45819e-07 43.0751 1.44248e-06 37C2.23913e-06 30.9249 4.92487 26 11 26L22 26L22 37C22 43.0751 17.0751 48 11 48Z" fill="#797979"/>
</svg>
