<svg width="51" height="51" viewBox="0 0 51 51" fill="none" xmlns="http://www.w3.org/2000/svg">
<mask id="mask0_67_117" style="mask-type:alpha" maskUnits="userSpaceOnUse" x="0" y="0" width="51" height="51">
<rect width="51" height="51" fill="#D9D9D9"/>
</mask>
<g mask="url(#mask0_67_117)">
<path d="M40.375 19.125C38.3563 19.125 36.6031 18.5229 35.1156 17.3188C33.6281 16.1146 32.6365 14.5917 32.1406 12.75H18.8062C18.4167 14.2375 17.6818 15.5214 16.6016 16.6016C15.5214 17.6818 14.2375 18.4167 12.75 18.8062V32.1406C14.5917 32.6365 16.1146 33.6281 17.3188 35.1156C18.5229 36.6031 19.125 38.3563 19.125 40.375C19.125 42.7125 18.2927 44.7135 16.6281 46.3781C14.9635 48.0427 12.9625 48.875 10.625 48.875C8.2875 48.875 6.28646 48.0427 4.62188 46.3781C2.95729 44.7135 2.125 42.7125 2.125 40.375C2.125 38.3563 2.72708 36.6031 3.93125 35.1156C5.13542 33.6281 6.65833 32.6365 8.5 32.1406V18.8062C6.65833 18.3104 5.13542 17.3188 3.93125 15.8313C2.72708 14.3438 2.125 12.6083 2.125 10.625C2.125 8.2875 2.95729 6.28646 4.62188 4.62188C6.28646 2.95729 8.2875 2.125 10.625 2.125C12.6083 2.125 14.3438 2.72708 15.8313 3.93125C17.3188 5.13542 18.3104 6.65833 18.8062 8.5H32.1406C32.6365 6.65833 33.6281 5.13542 35.1156 3.93125C36.6031 2.72708 38.3563 2.125 40.375 2.125C42.7125 2.125 44.7135 2.95729 46.3781 4.62188C48.0427 6.28646 48.875 8.2875 48.875 10.625C48.875 12.9625 48.0427 14.9635 46.3781 16.6281C44.7135 18.2927 42.7125 19.125 40.375 19.125ZM10.625 44.625C11.7937 44.625 12.7943 44.2 13.6266 43.35C14.4589 42.5 14.875 41.5083 14.875 40.375C14.875 39.2062 14.4589 38.2057 13.6266 37.3734C12.7943 36.5411 11.7937 36.125 10.625 36.125C9.49167 36.125 8.5 36.5411 7.65 37.3734C6.8 38.2057 6.375 39.2062 6.375 40.375C6.375 41.5083 6.8 42.5 7.65 43.35C8.5 44.2 9.49167 44.625 10.625 44.625ZM10.625 14.875C11.7937 14.875 12.7943 14.4589 13.6266 13.6266C14.4589 12.7943 14.875 11.7937 14.875 10.625C14.875 9.45625 14.4589 8.45573 13.6266 7.62344C12.7943 6.79115 11.7937 6.375 10.625 6.375C9.49167 6.375 8.5 6.79115 7.65 7.62344C6.8 8.45573 6.375 9.45625 6.375 10.625C6.375 11.7937 6.8 12.7943 7.65 13.6266C8.5 14.4589 9.49167 14.875 10.625 14.875ZM40.375 48.875C38.0375 48.875 36.0365 48.0427 34.3719 46.3781C32.7073 44.7135 31.875 42.7125 31.875 40.375C31.875 38.0375 32.7073 36.0365 34.3719 34.3719C36.0365 32.7073 38.0375 31.875 40.375 31.875C42.7125 31.875 44.7135 32.7073 46.3781 34.3719C48.0427 36.0365 48.875 38.0375 48.875 40.375C48.875 42.7125 48.0427 44.7135 46.3781 46.3781C44.7135 48.0427 42.7125 48.875 40.375 48.875ZM40.375 44.625C41.5438 44.625 42.5443 44.2 43.3766 43.35C44.2089 42.5 44.625 41.5083 44.625 40.375C44.625 39.2062 44.2089 38.2057 43.3766 37.3734C42.5443 36.5411 41.5438 36.125 40.375 36.125C39.2062 36.125 38.2057 36.5411 37.3734 37.3734C36.5411 38.2057 36.125 39.2062 36.125 40.375C36.125 41.5083 36.5411 42.5 37.3734 43.35C38.2057 44.2 39.2062 44.625 40.375 44.625ZM40.375 14.875C41.5438 14.875 42.5443 14.4589 43.3766 13.6266C44.2089 12.7943 44.625 11.7937 44.625 10.625C44.625 9.45625 44.2089 8.45573 43.3766 7.62344C42.5443 6.79115 41.5438 6.375 40.375 6.375C39.2062 6.375 38.2057 6.79115 37.3734 7.62344C36.5411 8.45573 36.125 9.45625 36.125 10.625C36.125 11.7937 36.5411 12.7943 37.3734 13.6266C38.2057 14.4589 39.2062 14.875 40.375 14.875Z" fill="#1C1B1F"/>
</g>
</svg>
