<svg width="49" height="49" viewBox="0 0 49 49" fill="none" xmlns="http://www.w3.org/2000/svg">
<mask id="mask0_67_120" style="mask-type:alpha" maskUnits="userSpaceOnUse" x="0" y="0" width="49" height="49">
<rect width="49" height="49" fill="#D9D9D9"/>
</mask>
<g mask="url(#mask0_67_120)">
<path d="M14.2918 46.9583C13.1689 46.9583 12.2076 46.5585 11.408 45.7588C10.6083 44.9592 10.2085 43.9979 10.2085 42.875V6.12496C10.2085 5.00204 10.6083 4.04076 11.408 3.24111C12.2076 2.44145 13.1689 2.04163 14.2918 2.04163H34.7085C35.8314 2.04163 36.7927 2.44145 37.5924 3.24111C38.392 4.04076 38.7918 5.00204 38.7918 6.12496V42.875C38.7918 43.9979 38.392 44.9592 37.5924 45.7588C36.7927 46.5585 35.8314 46.9583 34.7085 46.9583H14.2918ZM14.2918 36.75V42.875H34.7085V36.75H14.2918ZM24.5002 41.8541C25.0786 41.8541 25.5635 41.6585 25.9549 41.2671C26.3462 40.8758 26.5418 40.3909 26.5418 39.8125C26.5418 39.234 26.3462 38.7491 25.9549 38.3578C25.5635 37.9665 25.0786 37.7708 24.5002 37.7708C23.9217 37.7708 23.4368 37.9665 23.0455 38.3578C22.6542 38.7491 22.4585 39.234 22.4585 39.8125C22.4585 40.3909 22.6542 40.8758 23.0455 41.2671C23.4368 41.6585 23.9217 41.8541 24.5002 41.8541ZM14.2918 32.6666H34.7085V12.25H14.2918V32.6666ZM14.2918 8.16663H34.7085V6.12496H14.2918V8.16663Z" fill="#1C1B1F"/>
</g>
</svg>
