<svg width="59" height="59" viewBox="0 0 59 59" fill="none" xmlns="http://www.w3.org/2000/svg">
<mask id="mask0_67_114" style="mask-type:alpha" maskUnits="userSpaceOnUse" x="0" y="0" width="59" height="59">
<rect width="59" height="59" fill="#D9D9D9"/>
</mask>
<g mask="url(#mask0_67_114)">
<path d="M29.5 51.625C23.3132 51.625 18.079 50.6724 13.7974 48.7672C9.5158 46.862 7.375 44.5368 7.375 41.7917V17.2083C7.375 14.5042 9.53628 12.1892 13.8589 10.2635C18.1814 8.33785 23.3951 7.375 29.5 7.375C35.6049 7.375 40.8186 8.33785 45.1411 10.2635C49.4637 12.1892 51.625 14.5042 51.625 17.2083V41.7917C51.625 44.5368 49.4842 46.862 45.2026 48.7672C40.921 50.6724 35.6868 51.625 29.5 51.625ZM29.5 22.1865C33.1465 22.1865 36.8135 21.6641 40.501 20.6193C44.1885 19.5745 46.2576 18.458 46.7083 17.2698C46.2576 16.0816 44.1988 14.9549 40.5318 13.8896C36.8648 12.8243 33.1875 12.2917 29.5 12.2917C25.7715 12.2917 22.1148 12.8141 18.5297 13.8589C14.9446 14.9036 12.8653 16.0406 12.2917 17.2698C12.8653 18.499 14.9446 19.6257 18.5297 20.65C22.1148 21.6743 25.7715 22.1865 29.5 22.1865ZM29.5 34.4167C31.2208 34.4167 32.8802 34.3347 34.4781 34.1708C36.076 34.0069 37.6023 33.7714 39.0568 33.4641C40.5113 33.1568 41.8839 32.7778 43.1745 32.3271C44.4651 31.8764 45.6431 31.3642 46.7083 30.7906V23.4156C45.6431 23.9892 44.4651 24.5014 43.1745 24.9521C41.8839 25.4028 40.5113 25.7818 39.0568 26.0891C37.6023 26.3964 36.076 26.6319 34.4781 26.7958C32.8802 26.9597 31.2208 27.0417 29.5 27.0417C27.7792 27.0417 26.0993 26.9597 24.4604 26.7958C22.8215 26.6319 21.2748 26.3964 19.8203 26.0891C18.3658 25.7818 17.0035 25.4028 15.7333 24.9521C14.4632 24.5014 13.316 23.9892 12.2917 23.4156V30.7906C13.316 31.3642 14.4632 31.8764 15.7333 32.3271C17.0035 32.7778 18.3658 33.1568 19.8203 33.4641C21.2748 33.7714 22.8215 34.0069 24.4604 34.1708C26.0993 34.3347 27.7792 34.4167 29.5 34.4167ZM29.5 46.7083C31.3847 46.7083 33.3002 46.5649 35.2464 46.2781C37.1925 45.9913 38.9851 45.6123 40.624 45.1411C42.2628 44.67 43.6354 44.1373 44.7417 43.5432C45.8479 42.9491 46.5035 42.3448 46.7083 41.7302V35.7073C45.6431 36.2809 44.4651 36.7931 43.1745 37.2437C41.8839 37.6944 40.5113 38.0734 39.0568 38.3807C37.6023 38.688 36.076 38.9236 34.4781 39.0875C32.8802 39.2514 31.2208 39.3333 29.5 39.3333C27.7792 39.3333 26.0993 39.2514 24.4604 39.0875C22.8215 38.9236 21.2748 38.688 19.8203 38.3807C18.3658 38.0734 17.0035 37.6944 15.7333 37.2437C14.4632 36.7931 13.316 36.2809 12.2917 35.7073V41.7917C12.4965 42.4062 13.1418 43.0003 14.2276 43.574C15.3134 44.1476 16.6757 44.67 18.3146 45.1411C19.9535 45.6123 21.7562 45.9913 23.7229 46.2781C25.6896 46.5649 27.6153 46.7083 29.5 46.7083Z" fill="#1C1B1F"/>
</g>
</svg>
