<svg width="60" height="60" viewBox="0 0 60 60" fill="none" xmlns="http://www.w3.org/2000/svg">
<mask id="mask0_67_111" style="mask-type:alpha" maskUnits="userSpaceOnUse" x="0" y="0" width="60" height="60">
<rect width="60" height="60" fill="#D9D9D9"/>
</mask>
<g mask="url(#mask0_67_111)">
<path d="M10 52.5V41.875L42.9375 9C43.4375 8.5 44 8.125 44.625 7.875C45.25 7.625 45.875 7.5 46.5 7.5C47.1667 7.5 47.8021 7.625 48.4063 7.875C49.0104 8.125 49.5417 8.5 50 9L53.5 12.5C54 12.9583 54.375 13.4896 54.625 14.0938C54.875 14.6979 55 15.3333 55 16C55 16.625 54.875 17.25 54.625 17.875C54.375 18.5 54 19.0625 53.5 19.5625L20.625 52.5H10ZM15 47.5H18.5L43.0625 23L41.3125 21.1875L39.5 19.4375L15 44V47.5ZM41.3125 21.1875L39.5 19.4375L43.0625 23L41.3125 21.1875ZM35 52.5C38.0833 52.5 40.9375 51.7292 43.5625 50.1875C46.1875 48.6458 47.5 46.5 47.5 43.75C47.5 42.25 47.1042 40.9583 46.3125 39.875C45.5208 38.7917 44.4583 37.8542 43.125 37.0625L39.4375 40.75C40.3958 41.1667 41.1458 41.625 41.6875 42.125C42.2292 42.625 42.5 43.1667 42.5 43.75C42.5 44.7083 41.7396 45.5729 40.2188 46.3438C38.6979 47.1146 36.9583 47.5 35 47.5C34.2917 47.5 33.6979 47.7396 33.2188 48.2188C32.7396 48.6979 32.5 49.2917 32.5 50C32.5 50.7083 32.7396 51.3021 33.2188 51.7812C33.6979 52.2604 34.2917 52.5 35 52.5ZM11.4375 33.375L15.1875 29.625C14.3542 29.2917 13.6979 28.9479 13.2188 28.5938C12.7396 28.2396 12.5 27.875 12.5 27.5C12.5 27 12.875 26.5 13.625 26C14.375 25.5 15.9583 24.7292 18.375 23.6875C22.0417 22.1042 24.4792 20.6667 25.6875 19.375C26.8958 18.0833 27.5 16.625 27.5 15C27.5 12.7083 26.5833 10.8854 24.75 9.53125C22.9167 8.17708 20.5 7.5 17.5 7.5C15.625 7.5 13.9479 7.83333 12.4688 8.5C10.9896 9.16667 9.85417 9.97917 9.0625 10.9375C8.60417 11.4792 8.41667 12.0833 8.5 12.75C8.58333 13.4167 8.89583 13.9583 9.4375 14.375C9.97917 14.8333 10.5833 15.0208 11.25 14.9375C11.9167 14.8542 12.4792 14.5833 12.9375 14.125C13.5208 13.5417 14.1667 13.125 14.875 12.875C15.5833 12.625 16.4583 12.5 17.5 12.5C19.2083 12.5 20.4688 12.75 21.2813 13.25C22.0938 13.75 22.5 14.3333 22.5 15C22.5 15.5833 22.1354 16.1146 21.4062 16.5938C20.6771 17.0729 19 17.9167 16.375 19.125C13.0417 20.5833 10.7292 21.9063 9.4375 23.0938C8.14583 24.2812 7.5 25.75 7.5 27.5C7.5 28.8333 7.85417 29.9688 8.5625 30.9062C9.27083 31.8438 10.2292 32.6667 11.4375 33.375Z" fill="#1C1B1F"/>
</g>
</svg>
