<svg width="60" height="60" viewBox="0 0 60 60" fill="none" xmlns="http://www.w3.org/2000/svg">
<mask id="mask0_67_95" style="mask-type:alpha" maskUnits="userSpaceOnUse" x="0" y="0" width="60" height="60">
<rect width="60" height="60" fill="#D9D9D9"/>
</mask>
<g mask="url(#mask0_67_95)">
<path d="M5 17.5V12.5C5 11.125 5.48958 9.94792 6.46875 8.96875C7.44792 7.98958 8.625 7.5 10 7.5H50C51.375 7.5 52.5521 7.98958 53.5312 8.96875C54.5104 9.94792 55 11.125 55 12.5V17.5H50V12.5H10V17.5H5ZM20 52.5V47.5H10C8.625 47.5 7.44792 47.0104 6.46875 46.0312C5.48958 45.0521 5 43.875 5 42.5V37.5H10V42.5H50V37.5H55V42.5C55 43.875 54.5104 45.0521 53.5312 46.0312C52.5521 47.0104 51.375 47.5 50 47.5H40V52.5H20ZM12 27.5L18.5 21L15 17.5L5 27.5L15 37.5L18.5 34L12 27.5ZM48 27.5L41.5 34L45 37.5L55 27.5L45 17.5L41.5 21L48 27.5Z" fill="#1C1B1F"/>
</g>
</svg>
